<svg width="277" height="225" viewBox="0 0 277 225" fill="none" xmlns="http://www.w3.org/2000/svg">
<g opacity="0.5">
<path d="M17.1653 151.123C-18.8855 95.3135 16.2987 56.6628 38.3972 44.3137C59.629 26.9816 106.859 14.8491 115.092 10.5161C123.325 6.18302 169.688 -5.29951 196.77 7.69958C223.851 20.6987 266.098 51.4632 274.981 106.926C283.863 162.389 231.867 185.354 228.401 186.654C224.934 187.954 164.705 219.368 128.741 223.051C92.7767 226.734 62.2288 220.885 17.1653 151.123Z" stroke="#00AAAD" stroke-width="1.49286"/>
<path d="M125.924 6.61646C48.4071 -3.8071 25.4701 32.7591 23.2313 55.1464C16.7318 89.8107 41.6467 115.809 20.4149 145.707C3.42937 169.625 -1.03366 180.208 1.78281 196.187C11.9655 227.439 61.1454 222.401 92.7765 220.235C124.408 218.068 157.122 190.987 176.621 187.737C196.119 184.487 274.331 151.773 274.981 108.226C275.631 64.6791 251.366 40.6849 232.3 34.1853C213.235 27.6858 211.718 18.153 125.924 6.61646Z" stroke="#F15923" stroke-width="1.49286"/>
<path d="M176.187 48.2135C105.125 18.2289 65.55 58.1072 54.6453 81.7945C23.6641 137.691 82.5933 176.688 109.675 183.404C136.756 190.12 231.216 184.921 230.783 128.158C230.436 82.7477 194.241 55.9407 176.187 48.2135Z" stroke="#0B4EA2" stroke-width="1.49286"/>
<path d="M39.4814 162.605C26.8289 107.836 51.6861 80.2777 65.6962 73.3449C84.5882 60.3457 104.044 60.8513 111.41 62.729C153.873 75.5114 169.039 56.2294 176.189 46.9134C183.338 37.5973 191.354 27.4147 211.719 42.5803C232.085 57.7459 243.351 92.8435 244.217 117.758C245.084 142.673 214.319 176.254 176.189 171.921C138.058 167.588 118.343 184.27 116.176 184.27C64.6996 205.242 43.5977 178.565 39.4814 162.605Z" stroke="#FEB811" stroke-width="1.49286"/>
</g>
</svg>
