<svg width="1058" height="855" viewBox="0 0 1058 855" fill="none" xmlns="http://www.w3.org/2000/svg">
<g opacity="0.5">
<path d="M63.0739 574.832C-75.3613 360.524 59.7461 212.105 144.604 164.685C226.135 98.1292 407.498 51.5405 439.112 34.9016C470.726 18.2628 648.761 -25.8301 752.754 24.0864C856.747 74.0029 1018.98 192.139 1053.09 405.116C1087.19 618.093 887.529 706.279 874.218 711.271C860.907 716.262 629.627 836.894 491.524 851.037C353.422 865.18 236.118 842.718 63.0739 574.832Z" stroke="#00AAAD" stroke-width="1.49286"/>
<path d="M480.709 19.9272C183.043 -20.0993 94.965 120.315 86.3683 206.282C61.4101 339.393 157.083 439.226 75.553 554.034C10.3288 645.88 -6.80925 686.521 4.006 747.876C43.1073 867.884 231.958 848.541 353.422 840.222C474.885 831.903 600.509 727.91 675.383 715.431C750.258 702.952 1050.59 577.328 1053.09 410.108C1055.58 242.888 962.404 150.75 889.193 125.792C815.982 100.833 810.158 64.2276 480.709 19.9272Z" stroke="#F15923" stroke-width="1.49286"/>
<path d="M673.719 179.66C400.842 64.5191 248.874 217.652 207 308.611C88.0322 523.252 314.321 673.001 418.313 698.792C522.306 724.582 885.033 704.615 883.369 486.646C882.038 312.271 743.048 209.332 673.719 179.66Z" stroke="#0B4EA2" stroke-width="1.49286"/>
<path d="M148.768 618.924C100.182 408.609 195.634 302.786 249.433 276.164C321.978 226.248 396.686 228.189 424.973 235.399C588.033 284.484 646.269 210.441 673.723 174.667C701.177 138.894 731.959 99.7925 810.162 158.028C888.364 216.264 931.625 351.039 934.953 446.712C938.281 542.386 820.145 671.337 673.723 654.698C527.301 638.059 451.595 702.119 443.275 702.119C245.606 782.651 164.575 680.211 148.768 618.924Z" stroke="#FEB811" stroke-width="1.49286"/>
</g>
</svg>
